<?xml version="1.0" standalone="no"?>
<!DOCTYPE svg PUBLIC "-//W3C//DTD SVG 20010904//EN"
 "http://www.w3.org/TR/2001/REC-SVG-20010904/DTD/svg10.dtd">
<svg version="1.0" xmlns="http://www.w3.org/2000/svg"
 width="245.000000pt" height="245.000000pt" viewBox="0 0 245.000000 245.000000"
 preserveAspectRatio="xMidYMid meet">
<metadata>
Created by potrace 1.11, written by Peter Selinger 2001-2013
</metadata>
<g transform="translate(0.000000,245.000000) scale(0.100000,-0.100000)"
fill="#000000" stroke="none">
<path d="M1826 2378 c9 -95 20 -105 137 -127 l92 -18 0 -94 c0 -170 -33 -928
-41 -938 -2 -2 -31 22 -65 52 -93 85 -149 111 -229 108 -39 -1 -83 4 -109 13
-24 9 -54 16 -68 16 -13 0 -37 7 -53 15 -17 9 -56 18 -87 21 -50 5 -62 10 -89
40 -35 38 -64 121 -90 255 l-16 85 26 38 c33 49 36 125 6 173 -10 18 -26 73
-35 124 -19 109 -51 172 -108 215 -85 62 -104 69 -207 68 -85 0 -100 -3 -142
-28 -53 -30 -143 -132 -165 -186 -24 -56 -20 -135 11 -225 16 -44 37 -117 47
-162 24 -108 69 -210 134 -303 46 -66 75 -129 75 -166 0 -7 -12 -15 -27 -19
-15 -3 -38 -17 -51 -31 -14 -13 -43 -29 -66 -35 -22 -6 -50 -19 -61 -28 -26
-23 -70 -41 -99 -41 -12 0 -31 -7 -42 -15 -10 -8 -25 -15 -32 -15 -38 -1 -133
-137 -175 -250 -19 -51 -42 -158 -52 -242 -3 -32 -10 -60 -15 -63 -9 -5 -15
22 -45 189 -9 49 -22 101 -30 115 -23 45 -78 88 -117 94 l-38 6 0 -510 0 -509
1175 0 1175 0 1 108 c1 59 2 116 3 127 1 13 15 24 46 36 l45 17 3 121 c3 137
-4 160 -78 261 l-40 55 10 255 c5 140 14 361 20 490 6 129 12 287 15 350 3 63
7 165 10 225 3 61 8 176 11 258 l6 147 -292 0 -291 0 7 -72z m10 -1690 c40
-32 53 -42 104 -87 l45 -39 -3 -70 -4 -71 -36 -12 c-20 -7 -70 -28 -111 -47
-56 -27 -76 -42 -85 -63 -13 -37 -27 -38 -21 -1 18 106 65 398 65 404 0 14 16
9 46 -14z"/>
</g>
</svg>
